<svg xmlns="http://www.w3.org/2000/svg" version="1.1" xmlns:xlink="http://www.w3.org/1999/xlink" xmlns:svgjs="http://svgjs.dev/svgjs" width="1440" height="700" preserveAspectRatio="none" viewBox="0 0 1440 700"><g mask="url(&quot;#SvgjsMask2981&quot;)" fill="none"><rect width="1440" height="700" x="0" y="0" fill="url(&quot;#SvgjsLinearGradient2982&quot;)"></rect><path d="M1440 0L1004.65 0L1440 339.02z" fill="rgba(255, 255, 255, .1)"></path><path d="M1004.65 0L1440 339.02L1440 486.90999999999997L923.06 0z" fill="rgba(255, 255, 255, .075)"></path><path d="M923.06 0L1440 486.90999999999997L1440 558.8299999999999L855.8199999999999 0z" fill="rgba(255, 255, 255, .05)"></path><path d="M855.8199999999999 0L1440 558.8299999999999L1440 638.0799999999999L744.8 0z" fill="rgba(255, 255, 255, .025)"></path><path d="M0 700L222.72 700L0 670.88z" fill="rgba(0, 0, 0, .1)"></path><path d="M0 670.88L222.72 700L370 700L0 298.19z" fill="rgba(0, 0, 0, .075)"></path><path d="M0 298.19L370 700L928.95 700L0 117.91999999999999z" fill="rgba(0, 0, 0, .05)"></path><path d="M0 117.91999999999996L928.95 700L1163.54 700L0 43.679999999999964z" fill="rgba(0, 0, 0, .025)"></path></g><defs><mask id="SvgjsMask2981"><rect width="1440" height="700" fill="#ffffff"></rect></mask><linearGradient x1="12.85%" y1="126.43%" x2="87.15%" y2="-26.43%" gradientUnits="userSpaceOnUse" id="SvgjsLinearGradient2982"><stop stop-color="rgba(221, 221, 221, 1)" offset="0"></stop><stop stop-color="rgba(255, 255, 255, 1)" offset="1"></stop></linearGradient></defs></svg>