<svg xmlns="http://www.w3.org/2000/svg" version="1.1" xmlns:xlink="http://www.w3.org/1999/xlink" xmlns:svgjs="http://svgjs.dev/svgjs" width="1440" height="700" preserveAspectRatio="none" viewBox="0 0 1440 700"><g mask="url(&quot;#SvgjsMask3001&quot;)" fill="none"><rect width="1440" height="700" x="0" y="0" fill="url(&quot;#SvgjsLinearGradient3002&quot;)"></rect><path d="M1440 0L1282.06 0L1440 200.22z" fill="rgba(255, 255, 255, .1)"></path><path d="M1282.06 0L1440 200.22L1440 453.68L1239.55 0z" fill="rgba(255, 255, 255, .075)"></path><path d="M1239.55 0L1440 453.68L1440 596.08L1162.12 0z" fill="rgba(255, 255, 255, .05)"></path><path d="M1162.12 0L1440 596.08L1440 666.88L684.1799999999998 0z" fill="rgba(255, 255, 255, .025)"></path><path d="M0 700L57.26 700L0 652.62z" fill="rgba(0, 0, 0, .1)"></path><path d="M0 652.62L57.26 700L220.17999999999998 700L0 424.46000000000004z" fill="rgba(0, 0, 0, .075)"></path><path d="M0 424.46L220.17999999999998 700L637.92 700L0 167.01999999999998z" fill="rgba(0, 0, 0, .05)"></path><path d="M0 167.01999999999998L637.92 700L1207.74 700L0 56.44999999999999z" fill="rgba(0, 0, 0, .025)"></path></g><defs><mask id="SvgjsMask3001"><rect width="1440" height="700" fill="#ffffff"></rect></mask><linearGradient x1="12.85%" y1="126.43%" x2="87.15%" y2="-26.43%" gradientUnits="userSpaceOnUse" id="SvgjsLinearGradient3002"><stop stop-color="rgba(221, 221, 221, 1)" offset="0"></stop><stop stop-color="rgba(255, 255, 255, 1)" offset="1"></stop></linearGradient></defs></svg>